<?xml version="1.0" encoding="UTF-8" standalone="no"?>
<!DOCTYPE svg PUBLIC "-//W3C//DTD SVG 1.1//EN"
 "http://www.w3.org/Graphics/SVG/1.1/DTD/svg11.dtd">
<!-- Generated by graphviz version 2.28.0 (20120410.2031)
 -->
<!-- Title: controllers_diagram Pages: 1 -->
<svg width="637pt" height="702pt"
 viewBox="0.00 0.00 637.00 702.00" xmlns="http://www.w3.org/2000/svg" xmlns:xlink="http://www.w3.org/1999/xlink">
<g id="graph1" class="graph" transform="scale(1 1) rotate(0) translate(4 698)">
<title>controllers_diagram</title>
<polygon fill="white" stroke="white" points="-4,5 -4,-698 634,-698 634,5 -4,5"/>
<!-- _diagram_info -->
<g id="node1" class="node"><title>_diagram_info</title>
<text text-anchor="start" x="8" y="-63.6" font-family="Times,serif" font-size="13.00">Controllers diagram</text>
<text text-anchor="start" x="8" y="-49.6" font-family="Times,serif" font-size="13.00">Date: Apr 10 2012 &#45; 15:11</text>
<text text-anchor="start" x="8" y="-35.6" font-family="Times,serif" font-size="13.00">Migration version: 20120229063357</text>
<text text-anchor="start" x="8" y="-21.6" font-family="Times,serif" font-size="13.00">Generated by RailRoady 1.0.7</text>
<text text-anchor="start" x="8" y="-7.6" font-family="Times,serif" font-size="13.00">http://railroady.prestonlee.com</text>
</g>
<!-- AnswersController -->
<g id="node2" class="node"><title>AnswersController</title>
<polyline fill="none" stroke="black" points="32,-540.5 136,-540.5 "/>
<path fill="none" stroke="black" d="M136,-540.5C142,-540.5 148,-546.5 148,-552.5"/>
<polyline fill="none" stroke="black" points="148,-552.5 148,-681.5 "/>
<path fill="none" stroke="black" d="M148,-681.5C148,-687.5 142,-693.5 136,-693.5"/>
<polyline fill="none" stroke="black" points="136,-693.5 32,-693.5 "/>
<path fill="none" stroke="black" d="M32,-693.5C26,-693.5 20,-687.5 20,-681.5"/>
<polyline fill="none" stroke="black" points="20,-681.5 20,-552.5 "/>
<path fill="none" stroke="black" d="M20,-552.5C20,-546.5 26,-540.5 32,-540.5"/>
<text text-anchor="middle" x="84" y="-678.3" font-family="Times,serif" font-size="14.00">AnswersController</text>
<polyline fill="none" stroke="black" points="20,-670.5 148,-670.5 "/>
<text text-anchor="start" x="28" y="-655.3" font-family="Times,serif" font-size="14.00">create</text>
<text text-anchor="start" x="28" y="-640.3" font-family="Times,serif" font-size="14.00">destroy</text>
<text text-anchor="start" x="28" y="-625.3" font-family="Times,serif" font-size="14.00">edit</text>
<text text-anchor="start" x="28" y="-610.3" font-family="Times,serif" font-size="14.00">new</text>
<text text-anchor="start" x="28" y="-595.3" font-family="Times,serif" font-size="14.00">update</text>
<polyline fill="none" stroke="black" points="20,-587.5 148,-587.5 "/>
<polyline fill="none" stroke="black" points="20,-563.5 148,-563.5 "/>
<text text-anchor="start" x="28" y="-548.3" font-family="Times,serif" font-size="14.00">_layout</text>
</g>
<!-- ApplicationController -->
<g id="node3" class="node"><title>ApplicationController</title>
<polyline fill="none" stroke="black" points="432,-0.5 617,-0.5 "/>
<path fill="none" stroke="black" d="M617,-0.5C623,-0.5 629,-6.5 629,-12.5"/>
<polyline fill="none" stroke="black" points="629,-12.5 629,-96.5 "/>
<path fill="none" stroke="black" d="M629,-96.5C629,-102.5 623,-108.5 617,-108.5"/>
<polyline fill="none" stroke="black" points="617,-108.5 432,-108.5 "/>
<path fill="none" stroke="black" d="M432,-108.5C426,-108.5 420,-102.5 420,-96.5"/>
<polyline fill="none" stroke="black" points="420,-96.5 420,-12.5 "/>
<path fill="none" stroke="black" d="M420,-12.5C420,-6.5 426,-0.5 432,-0.5"/>
<text text-anchor="middle" x="524.5" y="-93.3" font-family="Times,serif" font-size="14.00">ApplicationController</text>
<polyline fill="none" stroke="black" points="420,-85.5 629,-85.5 "/>
<text text-anchor="start" x="428" y="-70.3" font-family="Times,serif" font-size="14.00">_one_time_conditions_valid_12?</text>
<polyline fill="none" stroke="black" points="420,-62.5 629,-62.5 "/>
<polyline fill="none" stroke="black" points="420,-38.5 629,-38.5 "/>
<text text-anchor="start" x="428" y="-23.3" font-family="Times,serif" font-size="14.00">_layout</text>
<text text-anchor="start" x="428" y="-8.3" font-family="Times,serif" font-size="14.00">_run_process_action_callbacks</text>
</g>
<!-- MicropostsController -->
<g id="node4" class="node"><title>MicropostsController</title>
<polyline fill="none" stroke="black" points="432,-400.5 617,-400.5 "/>
<path fill="none" stroke="black" d="M617,-400.5C623,-400.5 629,-406.5 629,-412.5"/>
<polyline fill="none" stroke="black" points="629,-412.5 629,-556.5 "/>
<path fill="none" stroke="black" d="M629,-556.5C629,-562.5 623,-568.5 617,-568.5"/>
<polyline fill="none" stroke="black" points="617,-568.5 432,-568.5 "/>
<path fill="none" stroke="black" d="M432,-568.5C426,-568.5 420,-562.5 420,-556.5"/>
<polyline fill="none" stroke="black" points="420,-556.5 420,-412.5 "/>
<path fill="none" stroke="black" d="M420,-412.5C420,-406.5 426,-400.5 432,-400.5"/>
<text text-anchor="middle" x="524.5" y="-553.3" font-family="Times,serif" font-size="14.00">MicropostsController</text>
<polyline fill="none" stroke="black" points="420,-545.5 629,-545.5 "/>
<text text-anchor="start" x="428" y="-530.3" font-family="Times,serif" font-size="14.00">_one_time_conditions_valid_34?</text>
<text text-anchor="start" x="428" y="-515.3" font-family="Times,serif" font-size="14.00">_one_time_conditions_valid_36?</text>
<text text-anchor="start" x="428" y="-500.3" font-family="Times,serif" font-size="14.00">create</text>
<text text-anchor="start" x="428" y="-485.3" font-family="Times,serif" font-size="14.00">destroy</text>
<polyline fill="none" stroke="black" points="420,-477.5 629,-477.5 "/>
<polyline fill="none" stroke="black" points="420,-453.5 629,-453.5 "/>
<text text-anchor="start" x="428" y="-438.3" font-family="Times,serif" font-size="14.00">_layout</text>
<text text-anchor="start" x="428" y="-423.3" font-family="Times,serif" font-size="14.00">_run_process_action_callbacks</text>
<text text-anchor="start" x="428" y="-408.3" font-family="Times,serif" font-size="14.00">authorized_user</text>
</g>
<!-- PagesController -->
<g id="node5" class="node"><title>PagesController</title>
<polyline fill="none" stroke="black" points="32,-280.5 118,-280.5 "/>
<path fill="none" stroke="black" d="M118,-280.5C124,-280.5 130,-286.5 130,-292.5"/>
<polyline fill="none" stroke="black" points="130,-292.5 130,-421.5 "/>
<path fill="none" stroke="black" d="M130,-421.5C130,-427.5 124,-433.5 118,-433.5"/>
<polyline fill="none" stroke="black" points="118,-433.5 32,-433.5 "/>
<path fill="none" stroke="black" d="M32,-433.5C26,-433.5 20,-427.5 20,-421.5"/>
<polyline fill="none" stroke="black" points="20,-421.5 20,-292.5 "/>
<path fill="none" stroke="black" d="M20,-292.5C20,-286.5 26,-280.5 32,-280.5"/>
<text text-anchor="middle" x="75" y="-418.3" font-family="Times,serif" font-size="14.00">PagesController</text>
<polyline fill="none" stroke="black" points="20,-410.5 130,-410.5 "/>
<text text-anchor="start" x="28" y="-395.3" font-family="Times,serif" font-size="14.00">about</text>
<text text-anchor="start" x="28" y="-380.3" font-family="Times,serif" font-size="14.00">contact</text>
<text text-anchor="start" x="28" y="-365.3" font-family="Times,serif" font-size="14.00">forgotpassword</text>
<text text-anchor="start" x="28" y="-350.3" font-family="Times,serif" font-size="14.00">help</text>
<text text-anchor="start" x="28" y="-335.3" font-family="Times,serif" font-size="14.00">home</text>
<polyline fill="none" stroke="black" points="20,-327.5 130,-327.5 "/>
<polyline fill="none" stroke="black" points="20,-303.5 130,-303.5 "/>
<text text-anchor="start" x="28" y="-288.3" font-family="Times,serif" font-size="14.00">_layout</text>
</g>
<!-- QuestionsController -->
<g id="node6" class="node"><title>QuestionsController</title>
<polyline fill="none" stroke="black" points="432,-140.5 617,-140.5 "/>
<path fill="none" stroke="black" d="M617,-140.5C623,-140.5 629,-146.5 629,-152.5"/>
<polyline fill="none" stroke="black" points="629,-152.5 629,-356.5 "/>
<path fill="none" stroke="black" d="M629,-356.5C629,-362.5 623,-368.5 617,-368.5"/>
<polyline fill="none" stroke="black" points="617,-368.5 432,-368.5 "/>
<path fill="none" stroke="black" d="M432,-368.5C426,-368.5 420,-362.5 420,-356.5"/>
<polyline fill="none" stroke="black" points="420,-356.5 420,-152.5 "/>
<path fill="none" stroke="black" d="M420,-152.5C420,-146.5 426,-140.5 432,-140.5"/>
<text text-anchor="middle" x="524.5" y="-353.3" font-family="Times,serif" font-size="14.00">QuestionsController</text>
<polyline fill="none" stroke="black" points="420,-345.5 629,-345.5 "/>
<text text-anchor="start" x="428" y="-330.3" font-family="Times,serif" font-size="14.00">_one_time_conditions_valid_64?</text>
<text text-anchor="start" x="428" y="-315.3" font-family="Times,serif" font-size="14.00">_one_time_conditions_valid_66?</text>
<text text-anchor="start" x="428" y="-300.3" font-family="Times,serif" font-size="14.00">create</text>
<text text-anchor="start" x="428" y="-285.3" font-family="Times,serif" font-size="14.00">destroy</text>
<text text-anchor="start" x="428" y="-270.3" font-family="Times,serif" font-size="14.00">edit</text>
<text text-anchor="start" x="428" y="-255.3" font-family="Times,serif" font-size="14.00">index</text>
<text text-anchor="start" x="428" y="-240.3" font-family="Times,serif" font-size="14.00">new</text>
<text text-anchor="start" x="428" y="-225.3" font-family="Times,serif" font-size="14.00">show</text>
<text text-anchor="start" x="428" y="-210.3" font-family="Times,serif" font-size="14.00">update</text>
<polyline fill="none" stroke="black" points="420,-202.5 629,-202.5 "/>
<polyline fill="none" stroke="black" points="420,-178.5 629,-178.5 "/>
<text text-anchor="start" x="428" y="-163.3" font-family="Times,serif" font-size="14.00">_layout</text>
<text text-anchor="start" x="428" y="-148.3" font-family="Times,serif" font-size="14.00">_run_process_action_callbacks</text>
</g>
<!-- RelationshipsController -->
<g id="node7" class="node"><title>RelationshipsController</title>
<polyline fill="none" stroke="black" points="192,-480.5 377,-480.5 "/>
<path fill="none" stroke="black" d="M377,-480.5C383,-480.5 389,-486.5 389,-492.5"/>
<polyline fill="none" stroke="black" points="389,-492.5 389,-606.5 "/>
<path fill="none" stroke="black" d="M389,-606.5C389,-612.5 383,-618.5 377,-618.5"/>
<polyline fill="none" stroke="black" points="377,-618.5 192,-618.5 "/>
<path fill="none" stroke="black" d="M192,-618.5C186,-618.5 180,-612.5 180,-606.5"/>
<polyline fill="none" stroke="black" points="180,-606.5 180,-492.5 "/>
<path fill="none" stroke="black" d="M180,-492.5C180,-486.5 186,-480.5 192,-480.5"/>
<text text-anchor="middle" x="284.5" y="-603.3" font-family="Times,serif" font-size="14.00">RelationshipsController</text>
<polyline fill="none" stroke="black" points="180,-595.5 389,-595.5 "/>
<text text-anchor="start" x="188" y="-580.3" font-family="Times,serif" font-size="14.00">_one_time_conditions_valid_78?</text>
<text text-anchor="start" x="188" y="-565.3" font-family="Times,serif" font-size="14.00">create</text>
<text text-anchor="start" x="188" y="-550.3" font-family="Times,serif" font-size="14.00">destroy</text>
<polyline fill="none" stroke="black" points="180,-542.5 389,-542.5 "/>
<polyline fill="none" stroke="black" points="180,-518.5 389,-518.5 "/>
<text text-anchor="start" x="188" y="-503.3" font-family="Times,serif" font-size="14.00">_layout</text>
<text text-anchor="start" x="188" y="-488.3" font-family="Times,serif" font-size="14.00">_run_process_action_callbacks</text>
</g>
<!-- SessionsController -->
<g id="node8" class="node"><title>SessionsController</title>
<polyline fill="none" stroke="black" points="12,-120.5 113,-120.5 "/>
<path fill="none" stroke="black" d="M113,-120.5C119,-120.5 125,-126.5 125,-132.5"/>
<polyline fill="none" stroke="black" points="125,-132.5 125,-231.5 "/>
<path fill="none" stroke="black" d="M125,-231.5C125,-237.5 119,-243.5 113,-243.5"/>
<polyline fill="none" stroke="black" points="113,-243.5 12,-243.5 "/>
<path fill="none" stroke="black" d="M12,-243.5C6,-243.5 0,-237.5 0,-231.5"/>
<polyline fill="none" stroke="black" points="0,-231.5 0,-132.5 "/>
<path fill="none" stroke="black" d="M0,-132.5C0,-126.5 6,-120.5 12,-120.5"/>
<text text-anchor="middle" x="62.5" y="-228.3" font-family="Times,serif" font-size="14.00">SessionsController</text>
<polyline fill="none" stroke="black" points="0,-220.5 125,-220.5 "/>
<text text-anchor="start" x="8" y="-205.3" font-family="Times,serif" font-size="14.00">create</text>
<text text-anchor="start" x="8" y="-190.3" font-family="Times,serif" font-size="14.00">destroy</text>
<text text-anchor="start" x="8" y="-175.3" font-family="Times,serif" font-size="14.00">new</text>
<polyline fill="none" stroke="black" points="0,-167.5 125,-167.5 "/>
<polyline fill="none" stroke="black" points="0,-143.5 125,-143.5 "/>
<text text-anchor="start" x="8" y="-128.3" font-family="Times,serif" font-size="14.00">_layout</text>
</g>
<!-- UsersController -->
<g id="node9" class="node"><title>UsersController</title>
<polyline fill="none" stroke="black" points="172,-120.5 365,-120.5 "/>
<path fill="none" stroke="black" d="M365,-120.5C371,-120.5 377,-126.5 377,-132.5"/>
<polyline fill="none" stroke="black" points="377,-132.5 377,-426.5 "/>
<path fill="none" stroke="black" d="M377,-426.5C377,-432.5 371,-438.5 365,-438.5"/>
<polyline fill="none" stroke="black" points="365,-438.5 172,-438.5 "/>
<path fill="none" stroke="black" d="M172,-438.5C166,-438.5 160,-432.5 160,-426.5"/>
<polyline fill="none" stroke="black" points="160,-426.5 160,-132.5 "/>
<path fill="none" stroke="black" d="M160,-132.5C160,-126.5 166,-120.5 172,-120.5"/>
<text text-anchor="middle" x="268.5" y="-423.3" font-family="Times,serif" font-size="14.00">UsersController</text>
<polyline fill="none" stroke="black" points="160,-415.5 377,-415.5 "/>
<text text-anchor="start" x="168" y="-400.3" font-family="Times,serif" font-size="14.00">_one_time_conditions_valid_194?</text>
<text text-anchor="start" x="168" y="-385.3" font-family="Times,serif" font-size="14.00">_one_time_conditions_valid_198?</text>
<text text-anchor="start" x="168" y="-370.3" font-family="Times,serif" font-size="14.00">_one_time_conditions_valid_202?</text>
<text text-anchor="start" x="168" y="-355.3" font-family="Times,serif" font-size="14.00">create</text>
<text text-anchor="start" x="168" y="-340.3" font-family="Times,serif" font-size="14.00">destroy</text>
<text text-anchor="start" x="168" y="-325.3" font-family="Times,serif" font-size="14.00">edit</text>
<text text-anchor="start" x="168" y="-310.3" font-family="Times,serif" font-size="14.00">followers</text>
<text text-anchor="start" x="168" y="-295.3" font-family="Times,serif" font-size="14.00">following</text>
<text text-anchor="start" x="168" y="-280.3" font-family="Times,serif" font-size="14.00">index</text>
<text text-anchor="start" x="168" y="-265.3" font-family="Times,serif" font-size="14.00">network</text>
<text text-anchor="start" x="168" y="-250.3" font-family="Times,serif" font-size="14.00">new</text>
<text text-anchor="start" x="168" y="-235.3" font-family="Times,serif" font-size="14.00">show</text>
<text text-anchor="start" x="168" y="-220.3" font-family="Times,serif" font-size="14.00">update</text>
<polyline fill="none" stroke="black" points="160,-212.5 377,-212.5 "/>
<polyline fill="none" stroke="black" points="160,-188.5 377,-188.5 "/>
<text text-anchor="start" x="168" y="-173.3" font-family="Times,serif" font-size="14.00">_layout</text>
<text text-anchor="start" x="168" y="-158.3" font-family="Times,serif" font-size="14.00">_run_process_action_callbacks</text>
<text text-anchor="start" x="168" y="-143.3" font-family="Times,serif" font-size="14.00">admin_user</text>
<text text-anchor="start" x="168" y="-128.3" font-family="Times,serif" font-size="14.00">correct_user</text>
</g>
</g>
</svg>
