<?xml version="1.0" encoding="UTF-8" standalone="no"?>
<!DOCTYPE svg PUBLIC "-//W3C//DTD SVG 1.1//EN"
 "http://www.w3.org/Graphics/SVG/1.1/DTD/svg11.dtd">
<!-- Generated by graphviz version 2.28.0 (20120410.2031)
 -->
<!-- Title: models_diagram Pages: 1 -->
<svg width="479pt" height="248pt"
 viewBox="0.00 0.00 479.00 248.00" xmlns="http://www.w3.org/2000/svg" xmlns:xlink="http://www.w3.org/1999/xlink">
<g id="graph1" class="graph" transform="scale(1 1) rotate(0) translate(4 244)">
<title>models_diagram</title>
<polygon fill="white" stroke="white" points="-4,5 -4,-244 476,-244 476,5 -4,5"/>
<!-- _diagram_info -->
<g id="node1" class="node"><title>_diagram_info</title>
<text text-anchor="start" x="7.5" y="-225.6" font-family="Times,serif" font-size="13.00">Models diagram</text>
<text text-anchor="start" x="7.5" y="-211.6" font-family="Times,serif" font-size="13.00">Date: Apr 10 2012 &#45; 15:11</text>
<text text-anchor="start" x="7.5" y="-197.6" font-family="Times,serif" font-size="13.00">Migration version: 20120229063357</text>
<text text-anchor="start" x="7.5" y="-183.6" font-family="Times,serif" font-size="13.00">Generated by RailRoady 1.0.7</text>
<text text-anchor="start" x="7.5" y="-169.6" font-family="Times,serif" font-size="13.00">http://railroady.prestonlee.com</text>
</g>
<!-- Answer -->
<g id="node2" class="node"><title>Answer</title>
<ellipse fill="none" stroke="black" cx="119" cy="-18" rx="39.9464" ry="18"/>
<text text-anchor="middle" x="119" y="-14.3" font-family="Times,serif" font-size="14.00">Answer</text>
</g>
<!-- Micropost -->
<g id="node3" class="node"><title>Micropost</title>
<ellipse fill="none" stroke="black" cx="143" cy="-92" rx="49.0941" ry="18"/>
<text text-anchor="middle" x="143" y="-88.3" font-family="Times,serif" font-size="14.00">Micropost</text>
</g>
<!-- Question -->
<g id="node4" class="node"><title>Question</title>
<ellipse fill="none" stroke="black" cx="255" cy="-92" rx="44.2946" ry="18"/>
<text text-anchor="middle" x="255" y="-88.3" font-family="Times,serif" font-size="14.00">Question</text>
</g>
<!-- Question&#45;&gt;Answer -->
<g id="edge2" class="edge"><title>Question&#45;&gt;Answer</title>
<path fill="none" stroke="#df6d29" d="M221.909,-73.4815C200.951,-62.3859 173.922,-48.0764 152.824,-36.9069"/>
<ellipse fill="none" stroke="#df6d29" cx="225.564" cy="-75.4163" rx="4.00002" ry="4.00002"/>
<polygon fill="#df6d29" stroke="#df6d29" points="152.724,-36.8541 145.992,-28.1981 148.305,-34.5146 143.886,-32.1751 143.886,-32.1751 143.886,-32.1751 148.305,-34.5146 141.781,-36.1522 152.724,-36.8541 152.724,-36.8541"/>
</g>
<!-- Relationship -->
<g id="node5" class="node"><title>Relationship</title>
<ellipse fill="none" stroke="black" cx="375" cy="-92" rx="57.2688" ry="18"/>
<text text-anchor="middle" x="375" y="-88.3" font-family="Times,serif" font-size="14.00">Relationship</text>
</g>
<!-- User -->
<g id="node6" class="node"><title>User</title>
<ellipse fill="none" stroke="black" cx="255" cy="-201" rx="28.3955" ry="18"/>
<text text-anchor="middle" x="255" y="-197.3" font-family="Times,serif" font-size="14.00">User</text>
</g>
<!-- User&#45;&gt;Answer -->
<g id="edge16" class="edge"><title>User&#45;&gt;Answer</title>
<path fill="none" stroke="#d6b94e" d="M236.937,-178.892C231.029,-172.87 224.139,-166.681 217,-162 164.269,-127.427 120.487,-162.121 85,-110 70.9441,-89.3556 84.5268,-62.145 98.4757,-42.8728"/>
<ellipse fill="none" stroke="#d6b94e" cx="239.749" cy="-181.881" rx="4.00002" ry="4.00002"/>
<polygon fill="#d6b94e" stroke="#d6b94e" points="98.5166,-42.8193 108.174,-37.6247 101.56,-38.8524 104.604,-34.8855 104.604,-34.8855 104.604,-34.8855 101.56,-38.8524 101.034,-32.1462 98.5166,-42.8193 98.5166,-42.8193"/>
</g>
<!-- User&#45;&gt;Micropost -->
<g id="edge4" class="edge"><title>User&#45;&gt;Micropost</title>
<path fill="none" stroke="#d85a26" d="M234.75,-179.487C229.049,-173.784 222.816,-167.616 217,-162 200.901,-146.454 182.498,-129.292 168.071,-115.972"/>
<ellipse fill="none" stroke="#d85a26" cx="237.86" cy="-182.61" rx="4.00002" ry="4.00002"/>
<polygon fill="#d85a26" stroke="#d85a26" points="167.86,-115.778 163.554,-105.693 164.183,-112.39 160.505,-109.003 160.505,-109.003 160.505,-109.003 164.183,-112.39 157.456,-112.312 167.86,-115.778 167.86,-115.778"/>
</g>
<!-- User&#45;&gt;Question -->
<g id="edge14" class="edge"><title>User&#45;&gt;Question</title>
<path fill="none" stroke="#b214ae" d="M255,-174.772C255,-158.434 255,-137.161 255,-120.408"/>
<ellipse fill="none" stroke="#b214ae" cx="255" cy="-178.809" rx="4" ry="4"/>
<polygon fill="#b214ae" stroke="#b214ae" points="255,-120.149 259.5,-110.149 255,-115.149 255,-110.149 255,-110.149 255,-110.149 255,-115.149 250.5,-110.149 255,-120.149 255,-120.149"/>
</g>
<!-- User&#45;&gt;Relationship -->
<g id="edge6" class="edge"><title>User&#45;&gt;Relationship</title>
<path fill="none" stroke="#f22c00" d="M276.767,-180.591C297.094,-162.467 327.453,-135.396 349.035,-116.152"/>
<ellipse fill="none" stroke="#f22c00" cx="273.673" cy="-183.35" rx="4.00002" ry="4.00002"/>
<polygon fill="#f22c00" stroke="#f22c00" points="349.09,-116.103 359.549,-112.806 352.822,-112.775 356.554,-109.448 356.554,-109.448 356.554,-109.448 352.822,-112.775 353.559,-106.089 349.09,-116.103 349.09,-116.103"/>
</g>
<!-- User&#45;&gt;Relationship -->
<g id="edge8" class="edge"><title>User&#45;&gt;Relationship</title>
<path fill="none" stroke="#7eed42" d="M282.475,-184.431C299.253,-174.18 320.566,-159.771 337,-144 345.007,-136.317 352.583,-126.806 358.834,-118.087"/>
<ellipse fill="none" stroke="#7eed42" cx="279.019" cy="-186.504" rx="4.00002" ry="4.00002"/>
<polygon fill="#7eed42" stroke="#7eed42" points="358.924,-117.956 368.311,-112.286 361.766,-113.842 364.609,-109.728 364.609,-109.728 364.609,-109.728 361.766,-113.842 360.906,-107.17 358.924,-117.956 358.924,-117.956"/>
<text text-anchor="middle" x="410.5" y="-132.3" font-family="Times,serif" font-size="14.00">reverse_relationships</text>
</g>
<!-- User&#45;&gt;User -->
<g id="edge10" class="edge"><title>User&#45;&gt;User</title>
<path fill="none" stroke="#400ed6" d="M292.157,-206.388C297.448,-205.519 301,-203.723 301,-201 301,-198.277 297.448,-196.481 292.157,-195.612"/>
<polygon fill="#400ed6" stroke="#400ed6" points="291.916,-206.402 281.673,-202.484 286.924,-206.689 281.932,-206.977 281.932,-206.977 281.932,-206.977 286.924,-206.689 282.191,-211.469 291.916,-206.402 291.916,-206.402"/>
<polygon fill="#400ed6" stroke="#400ed6" points="291.916,-195.598 282.191,-190.531 286.924,-195.311 281.932,-195.023 281.932,-195.023 281.932,-195.023 286.924,-195.311 281.673,-199.516 291.916,-195.598 291.916,-195.598"/>
<text text-anchor="middle" x="330" y="-197.3" font-family="Times,serif" font-size="14.00">following</text>
</g>
<!-- User&#45;&gt;User -->
<g id="edge12" class="edge"><title>User&#45;&gt;User</title>
<path fill="none" stroke="#1fc9bb" d="M289.969,-211.49C321.074,-215.334 359,-211.837 359,-201 359,-190.163 321.074,-186.666 289.969,-190.51"/>
<polygon fill="#1fc9bb" stroke="#1fc9bb" points="289.629,-211.438 280.437,-205.459 284.688,-210.672 279.747,-209.906 279.747,-209.906 279.747,-209.906 284.688,-210.672 279.058,-214.352 289.629,-211.438 289.629,-211.438"/>
<polygon fill="#1fc9bb" stroke="#1fc9bb" points="289.629,-190.562 279.058,-187.648 284.688,-191.328 279.747,-192.094 279.747,-192.094 279.747,-192.094 284.688,-191.328 280.437,-196.541 289.629,-190.562 289.629,-190.562"/>
<text text-anchor="middle" x="386.5" y="-197.3" font-family="Times,serif" font-size="14.00">followers</text>
</g>
</g>
</svg>
