<?xml version="1.0" encoding="UTF-8" standalone="no"?>
<!DOCTYPE svg PUBLIC "-//W3C//DTD SVG 1.1//EN"
 "http://www.w3.org/Graphics/SVG/1.1/DTD/svg11.dtd">
<!-- Generated by graphviz version 2.28.0 (20120410.2031)
 -->
<!-- Title: models_diagram Pages: 1 -->
<svg width="561pt" height="436pt"
 viewBox="0.00 0.00 561.00 436.00" xmlns="http://www.w3.org/2000/svg" xmlns:xlink="http://www.w3.org/1999/xlink">
<g id="graph1" class="graph" transform="scale(1 1) rotate(0) translate(4 432)">
<title>models_diagram</title>
<polygon fill="white" stroke="white" points="-4,5 -4,-432 558,-432 558,5 -4,5"/>
<!-- _diagram_info -->
<g id="node1" class="node"><title>_diagram_info</title>
<text text-anchor="start" x="7.5" y="-368.6" font-family="Times,serif" font-size="13.00">Models diagram</text>
<text text-anchor="start" x="7.5" y="-354.6" font-family="Times,serif" font-size="13.00">Date: Apr 10 2012 &#45; 15:11</text>
<text text-anchor="start" x="7.5" y="-340.6" font-family="Times,serif" font-size="13.00">Migration version: 20120229063357</text>
<text text-anchor="start" x="7.5" y="-326.6" font-family="Times,serif" font-size="13.00">Generated by RailRoady 1.0.7</text>
<text text-anchor="start" x="7.5" y="-312.6" font-family="Times,serif" font-size="13.00">http://railroady.prestonlee.com</text>
</g>
<!-- Answer -->
<g id="node2" class="node"><title>Answer</title>
<polyline fill="none" stroke="black" points="78.5,-1 189.5,-1 "/>
<path fill="none" stroke="black" d="M189.5,-1C195.5,-1 201.5,-7 201.5,-13"/>
<polyline fill="none" stroke="black" points="201.5,-13 201.5,-65 "/>
<path fill="none" stroke="black" d="M201.5,-65C201.5,-71 195.5,-77 189.5,-77"/>
<polyline fill="none" stroke="black" points="189.5,-77 78.5,-77 "/>
<path fill="none" stroke="black" d="M78.5,-77C72.5,-77 66.5,-71 66.5,-65"/>
<polyline fill="none" stroke="black" points="66.5,-65 66.5,-13 "/>
<path fill="none" stroke="black" d="M66.5,-13C66.5,-7 72.5,-1 78.5,-1"/>
<text text-anchor="middle" x="134" y="-61.8" font-family="Times,serif" font-size="14.00">Answer</text>
<polyline fill="none" stroke="black" points="66.5,-54 201.5,-54 "/>
<text text-anchor="start" x="74.5" y="-38.8" font-family="Times,serif" font-size="14.00">body :text</text>
<text text-anchor="start" x="74.5" y="-23.8" font-family="Times,serif" font-size="14.00">created_at :datetime</text>
<text text-anchor="start" x="74.5" y="-8.8" font-family="Times,serif" font-size="14.00">updated_at :datetime</text>
</g>
<!-- Micropost -->
<g id="node3" class="node"><title>Micropost</title>
<polyline fill="none" stroke="black" points="106.5,-124 217.5,-124 "/>
<path fill="none" stroke="black" d="M217.5,-124C223.5,-124 229.5,-130 229.5,-136"/>
<polyline fill="none" stroke="black" points="229.5,-136 229.5,-188 "/>
<path fill="none" stroke="black" d="M229.5,-188C229.5,-194 223.5,-200 217.5,-200"/>
<polyline fill="none" stroke="black" points="217.5,-200 106.5,-200 "/>
<path fill="none" stroke="black" d="M106.5,-200C100.5,-200 94.5,-194 94.5,-188"/>
<polyline fill="none" stroke="black" points="94.5,-188 94.5,-136 "/>
<path fill="none" stroke="black" d="M94.5,-136C94.5,-130 100.5,-124 106.5,-124"/>
<text text-anchor="middle" x="162" y="-184.8" font-family="Times,serif" font-size="14.00">Micropost</text>
<polyline fill="none" stroke="black" points="94.5,-177 229.5,-177 "/>
<text text-anchor="start" x="102.5" y="-161.8" font-family="Times,serif" font-size="14.00">content :string</text>
<text text-anchor="start" x="102.5" y="-146.8" font-family="Times,serif" font-size="14.00">created_at :datetime</text>
<text text-anchor="start" x="102.5" y="-131.8" font-family="Times,serif" font-size="14.00">updated_at :datetime</text>
</g>
<!-- Question -->
<g id="node4" class="node"><title>Question</title>
<polyline fill="none" stroke="black" points="259.5,-116.5 370.5,-116.5 "/>
<path fill="none" stroke="black" d="M370.5,-116.5C376.5,-116.5 382.5,-122.5 382.5,-128.5"/>
<polyline fill="none" stroke="black" points="382.5,-128.5 382.5,-195.5 "/>
<path fill="none" stroke="black" d="M382.5,-195.5C382.5,-201.5 376.5,-207.5 370.5,-207.5"/>
<polyline fill="none" stroke="black" points="370.5,-207.5 259.5,-207.5 "/>
<path fill="none" stroke="black" d="M259.5,-207.5C253.5,-207.5 247.5,-201.5 247.5,-195.5"/>
<polyline fill="none" stroke="black" points="247.5,-195.5 247.5,-128.5 "/>
<path fill="none" stroke="black" d="M247.5,-128.5C247.5,-122.5 253.5,-116.5 259.5,-116.5"/>
<text text-anchor="middle" x="315" y="-192.3" font-family="Times,serif" font-size="14.00">Question</text>
<polyline fill="none" stroke="black" points="247.5,-184.5 382.5,-184.5 "/>
<text text-anchor="start" x="255.5" y="-169.3" font-family="Times,serif" font-size="14.00">title :string</text>
<text text-anchor="start" x="255.5" y="-154.3" font-family="Times,serif" font-size="14.00">body :text</text>
<text text-anchor="start" x="255.5" y="-139.3" font-family="Times,serif" font-size="14.00">created_at :datetime</text>
<text text-anchor="start" x="255.5" y="-124.3" font-family="Times,serif" font-size="14.00">updated_at :datetime</text>
</g>
<!-- Question&#45;&gt;Answer -->
<g id="edge2" class="edge"><title>Question&#45;&gt;Answer</title>
<path fill="none" stroke="#d86cf8" d="M241.511,-111.872C227.133,-102.26 212.16,-92.2505 198.116,-82.862"/>
<ellipse fill="none" stroke="#d86cf8" cx="245.048" cy="-114.236" rx="4.00002" ry="4.00002"/>
<polygon fill="#d86cf8" stroke="#d86cf8" points="197.819,-82.6633 192.006,-73.3646 193.662,-79.8845 189.505,-77.1057 189.505,-77.1057 189.505,-77.1057 193.662,-79.8845 187.004,-80.8467 197.819,-82.6633 197.819,-82.6633"/>
</g>
<!-- Relationship -->
<g id="node5" class="node"><title>Relationship</title>
<polyline fill="none" stroke="black" points="412.5,-131.5 523.5,-131.5 "/>
<path fill="none" stroke="black" d="M523.5,-131.5C529.5,-131.5 535.5,-137.5 535.5,-143.5"/>
<polyline fill="none" stroke="black" points="535.5,-143.5 535.5,-180.5 "/>
<path fill="none" stroke="black" d="M535.5,-180.5C535.5,-186.5 529.5,-192.5 523.5,-192.5"/>
<polyline fill="none" stroke="black" points="523.5,-192.5 412.5,-192.5 "/>
<path fill="none" stroke="black" d="M412.5,-192.5C406.5,-192.5 400.5,-186.5 400.5,-180.5"/>
<polyline fill="none" stroke="black" points="400.5,-180.5 400.5,-143.5 "/>
<path fill="none" stroke="black" d="M400.5,-143.5C400.5,-137.5 406.5,-131.5 412.5,-131.5"/>
<text text-anchor="middle" x="468" y="-177.3" font-family="Times,serif" font-size="14.00">Relationship</text>
<polyline fill="none" stroke="black" points="400.5,-169.5 535.5,-169.5 "/>
<text text-anchor="start" x="408.5" y="-154.3" font-family="Times,serif" font-size="14.00">created_at :datetime</text>
<text text-anchor="start" x="408.5" y="-139.3" font-family="Times,serif" font-size="14.00">updated_at :datetime</text>
</g>
<!-- User -->
<g id="node6" class="node"><title>User</title>
<polyline fill="none" stroke="black" points="238.5,-261 391.5,-261 "/>
<path fill="none" stroke="black" d="M391.5,-261C397.5,-261 403.5,-267 403.5,-273"/>
<polyline fill="none" stroke="black" points="403.5,-273 403.5,-415 "/>
<path fill="none" stroke="black" d="M403.5,-415C403.5,-421 397.5,-427 391.5,-427"/>
<polyline fill="none" stroke="black" points="391.5,-427 238.5,-427 "/>
<path fill="none" stroke="black" d="M238.5,-427C232.5,-427 226.5,-421 226.5,-415"/>
<polyline fill="none" stroke="black" points="226.5,-415 226.5,-273 "/>
<path fill="none" stroke="black" d="M226.5,-273C226.5,-267 232.5,-261 238.5,-261"/>
<text text-anchor="middle" x="315" y="-411.8" font-family="Times,serif" font-size="14.00">User</text>
<polyline fill="none" stroke="black" points="226.5,-404 403.5,-404 "/>
<text text-anchor="start" x="234.5" y="-388.8" font-family="Times,serif" font-size="14.00">name :string</text>
<text text-anchor="start" x="234.5" y="-373.8" font-family="Times,serif" font-size="14.00">email :string</text>
<text text-anchor="start" x="234.5" y="-358.8" font-family="Times,serif" font-size="14.00">created_at :datetime</text>
<text text-anchor="start" x="234.5" y="-343.8" font-family="Times,serif" font-size="14.00">updated_at :datetime</text>
<text text-anchor="start" x="234.5" y="-328.8" font-family="Times,serif" font-size="14.00">encrypted_password :string</text>
<text text-anchor="start" x="234.5" y="-313.8" font-family="Times,serif" font-size="14.00">salt :string</text>
<text text-anchor="start" x="234.5" y="-298.8" font-family="Times,serif" font-size="14.00">admin :boolean</text>
<text text-anchor="start" x="234.5" y="-283.8" font-family="Times,serif" font-size="14.00">country :string</text>
<text text-anchor="start" x="234.5" y="-268.8" font-family="Times,serif" font-size="14.00">auth_token :string</text>
</g>
<!-- User&#45;&gt;Answer -->
<g id="edge16" class="edge"><title>User&#45;&gt;Answer</title>
<path fill="none" stroke="#a4e802" d="M219.664,-261.617C218.776,-261.07 217.888,-260.531 217,-260 162.885,-227.636 120.487,-260.121 85,-208 61.988,-174.201 73.4515,-155.224 85,-116 88.0553,-105.623 93.0159,-95.3257 98.6347,-85.8175"/>
<ellipse fill="none" stroke="#a4e802" cx="223.086" cy="-263.798" rx="4.00002" ry="4.00002"/>
<polygon fill="#a4e802" stroke="#a4e802" points="98.6418,-85.8062 107.76,-79.7137 101.293,-81.5669 103.944,-77.3276 103.944,-77.3276 103.944,-77.3276 101.293,-81.5669 100.129,-74.9416 98.6418,-85.8062 98.6418,-85.8062"/>
</g>
<!-- User&#45;&gt;Micropost -->
<g id="edge4" class="edge"><title>User&#45;&gt;Micropost</title>
<path fill="none" stroke="#39920f" d="M239.73,-254.447C226.063,-238.368 212.343,-222.227 200.317,-208.079"/>
<ellipse fill="none" stroke="#39920f" cx="242.625" cy="-257.853" rx="4.00002" ry="4.00002"/>
<polygon fill="#39920f" stroke="#39920f" points="200.297,-208.056 197.249,-197.522 197.059,-204.246 193.821,-200.436 193.821,-200.436 193.821,-200.436 197.059,-204.246 190.392,-203.351 200.297,-208.056 200.297,-208.056"/>
</g>
<!-- User&#45;&gt;Question -->
<g id="edge14" class="edge"><title>User&#45;&gt;Question</title>
<path fill="none" stroke="#7bfb33" d="M315,-252.707C315,-240.818 315,-228.937 315,-217.892"/>
<ellipse fill="none" stroke="#7bfb33" cx="315" cy="-256.901" rx="4" ry="4"/>
<polygon fill="#7bfb33" stroke="#7bfb33" points="315,-217.586 319.5,-207.586 315,-212.586 315,-207.586 315,-207.586 315,-207.586 315,-212.586 310.5,-207.587 315,-217.586 315,-217.586"/>
</g>
<!-- User&#45;&gt;Relationship -->
<g id="edge6" class="edge"><title>User&#45;&gt;Relationship</title>
<path fill="none" stroke="#717679" d="M390.118,-254.625C406.244,-235.654 422.452,-216.586 435.874,-200.795"/>
<ellipse fill="none" stroke="#717679" cx="387.375" cy="-257.853" rx="4.00002" ry="4.00002"/>
<polygon fill="#717679" stroke="#717679" points="436.147,-200.474 446.053,-195.769 439.386,-196.664 442.624,-192.854 442.624,-192.854 442.624,-192.854 439.386,-196.664 439.195,-189.94 436.147,-200.474 436.147,-200.474"/>
</g>
<!-- User&#45;&gt;Relationship -->
<g id="edge10" class="edge"><title>User&#45;&gt;Relationship</title>
<path fill="none" stroke="#e2c37e" d="M408.982,-257.439C413.52,-252.341 417.891,-247.178 422,-242 431.779,-229.676 440.881,-215.052 448.366,-201.756"/>
<ellipse fill="none" stroke="#e2c37e" cx="406.27" cy="-260.428" rx="4.00002" ry="4.00002"/>
<polygon fill="#e2c37e" stroke="#e2c37e" points="448.465,-201.575 457.222,-194.973 450.871,-197.191 453.277,-192.808 453.277,-192.808 453.277,-192.808 450.871,-197.191 449.332,-190.643 448.465,-201.575 448.465,-201.575"/>
<text text-anchor="middle" x="492.5" y="-230.3" font-family="Times,serif" font-size="14.00">reverse_relationships</text>
</g>
<!-- User&#45;&gt;User -->
<g id="edge8" class="edge"><title>User&#45;&gt;User</title>
<path fill="none" stroke="#902f51" d="M413.354,-350.605C418.168,-348.954 421,-346.753 421,-344 421,-341.247 418.168,-339.046 413.354,-337.395"/>
<polygon fill="#902f51" stroke="#902f51" points="413.278,-350.622 402.524,-348.477 408.405,-351.742 403.532,-352.862 403.532,-352.862 403.532,-352.862 408.405,-351.742 404.54,-357.248 413.278,-350.622 413.278,-350.622"/>
<polygon fill="#902f51" stroke="#902f51" points="413.278,-337.378 404.54,-330.752 408.405,-336.258 403.532,-335.138 403.532,-335.138 403.532,-335.138 408.405,-336.258 402.524,-339.523 413.278,-337.378 413.278,-337.378"/>
<text text-anchor="middle" x="450" y="-340.3" font-family="Times,serif" font-size="14.00">following</text>
</g>
<!-- User&#45;&gt;User -->
<g id="edge12" class="edge"><title>User&#45;&gt;User</title>
<path fill="none" stroke="#67c399" d="M413.676,-364.623C449.002,-364.474 479,-357.599 479,-344 479,-330.401 449.002,-323.526 413.676,-323.377"/>
<polygon fill="#67c399" stroke="#67c399" points="413.591,-364.621 403.652,-359.987 408.591,-364.554 403.591,-364.486 403.591,-364.486 403.591,-364.486 408.591,-364.554 403.531,-368.986 413.591,-364.621 413.591,-364.621"/>
<polygon fill="#67c399" stroke="#67c399" points="413.591,-323.379 403.531,-319.014 408.591,-323.446 403.591,-323.514 403.591,-323.514 403.591,-323.514 408.591,-323.446 403.652,-328.013 413.591,-323.379 413.591,-323.379"/>
<text text-anchor="middle" x="506.5" y="-340.3" font-family="Times,serif" font-size="14.00">followers</text>
</g>
</g>
</svg>
